<svg width="112" height="32" viewBox="0 0 112 32" fill="none" xmlns="http://www.w3.org/2000/svg">
<path d="M78.4581 26.486H72.2561V18.7681H78.4581C81.5891 18.7681 82.0708 19.6112 82.0708 22.6595C82.0708 25.6429 81.5891 26.486 78.4581 26.486ZM72.2561 6.44544H77.6753C80.987 6.44544 81.2881 7.41828 81.2881 9.88281C81.2881 12.5419 80.8064 13.3202 77.6753 13.3202H72.2561V6.44544ZM85.0815 15.8496C87.189 14.2282 87.49 11.6988 87.49 9.42882C87.49 3.59177 84.66 1.06238 77.9764 1.06238H69.2455C66.8971 1.06238 66.2348 1.45151 66.2348 3.9809V28.8857C66.2348 31.4799 66.8369 31.8042 69.2455 31.8042H78.7591C85.503 31.8042 88.2728 29.2748 88.2728 23.0486C88.2728 20.1949 87.8513 17.3413 85.0815 15.8496Z" fill="#20A6FF"/>
<path d="M93.3313 10.0762C90.983 10.0762 90.4411 10.595 90.4411 12.9947V28.9493C90.4411 31.349 90.983 31.8678 93.3313 31.8678C95.6796 31.8678 96.2216 31.349 96.2216 28.9493V12.9947C96.2216 10.595 95.7399 10.0762 93.3313 10.0762Z" fill="#20A6FF"/>
<path d="M12.2233 26.486H6.02131V18.7681H12.2233C15.3543 18.7681 15.836 19.6112 15.836 22.6595C15.836 25.6429 15.3543 26.486 12.2233 26.486ZM6.02131 6.44544H11.4405C14.7522 6.44544 15.0533 7.41828 15.0533 9.88281C15.0533 12.5419 14.5716 13.3202 11.4405 13.3202H6.02131V6.44544ZM18.8467 15.8496C20.9542 14.2282 21.2552 11.6988 21.2552 9.42882C21.2552 3.52691 18.365 1.06238 11.7416 1.06238H3.01065C0.602131 1.06238 0 1.38666 0 3.9809V28.8857C0 31.4799 0.602131 31.8042 3.01065 31.8042H12.5243C19.2682 31.8042 22.038 29.2748 22.038 23.0486C22.038 20.1949 21.6165 17.3413 18.8467 15.8496Z" fill="#20A6FF"/>
<path d="M36.9124 25.1253C34.6845 26.0981 32.9384 26.8115 31.6137 26.8115C30.7707 26.8115 29.9879 26.8115 29.9879 20.9745C29.9879 15.0726 30.8309 15.0726 31.6137 15.0726C32.9384 15.0726 34.6845 15.7211 36.9124 16.8237V25.1253ZM39.7424 10.0786C37.8758 10.0786 37.2135 10.4029 36.9726 11.7C34.3835 10.5326 32.276 9.81921 30.1686 9.81921C25.8934 9.81921 24.2677 12.8026 24.2677 20.9096C24.2677 29.0166 25.8934 32 30.1686 32C32.3964 32 34.5641 31.2866 37.0328 30.1192C37.2135 31.4163 37.936 31.7406 39.8027 31.7406C42.151 31.7406 42.6929 31.2217 42.6929 28.8221V12.9972C42.6327 10.5326 42.0907 10.0786 39.7424 10.0786Z" fill="#20A6FF"/>
<path d="M57.8024 9.88507C55.695 9.88507 53.5875 10.5985 50.9983 11.7659C50.8177 10.4039 50.0952 10.1445 48.2285 10.1445C45.8802 10.1445 45.3383 10.5985 45.3383 13.063V29.0176C45.3383 31.4173 45.8802 31.9362 48.2285 31.9362C50.5769 31.9362 51.1188 31.4173 51.1188 29.0176V16.8247C53.3467 15.787 55.0928 15.0736 56.3573 15.0736C56.7788 15.0736 57.2605 15.1384 57.5616 15.9167C57.8024 16.7598 57.7422 17.9921 57.7422 17.9921V28.8879C57.7422 31.2876 58.2841 31.8064 60.6927 31.8064C63.1012 31.8064 63.6431 31.2876 63.6431 28.8879V18.2515C63.6431 18.2515 63.5829 16.3058 63.4625 15.4627C62.4991 11.5065 60.9335 9.88507 57.8024 9.88507Z" fill="#20A6FF"/>
<path d="M108.264 6.51184C108.686 6.44699 111.877 6.83612 111.998 3.85274C112.058 1.77734 110.974 1.12878 108.626 1.06392C107.421 0.999068 106.157 0.999068 104.953 1.25849C103.508 1.58277 102.303 2.23133 101.761 3.33389C101.28 4.17702 101.039 5.34443 100.798 6.90098C100.678 7.87382 100.617 8.84666 100.617 10.0789C98.6303 10.0789 97.7271 10.2735 97.7271 12.6083C97.7271 14.8783 98.6905 15.0729 100.617 15.0729V28.9521C100.617 31.3518 101.159 31.8706 103.508 31.8706C105.856 31.8706 106.398 31.3518 106.398 28.9521V15.0729H107.903C109.95 15.0729 111.034 14.9431 111.034 12.6083C111.034 10.2086 110.011 10.0789 107.903 10.0789H106.398C106.398 7.74411 106.097 6.51184 108.264 6.51184Z" fill="#20A6FF"/>
<path d="M93.3314 5.92644C91.5852 6.63986 90.5014 4.04561 91.1035 2.94306C91.2842 2.55392 92.0067 1.58108 93.2712 1.97022C95.0776 2.42421 95.0776 5.21302 93.3314 5.92644ZM94.355 0.154244C91.7057 -0.559173 90.2606 1.38651 89.8993 2.22964C88.5746 4.62932 90.8627 9.94752 94.4153 8.45583C98.028 6.96414 98.028 1.19194 94.355 0.154244Z" fill="#C4D600"/>
</svg>
